PathFileType	4	(X/Y/Z)	/Users/visionmauri/Downloads/Videos/OAW08-top_Sports2D/OAW08-top_Sports2D_m_person00.trc
DataRate	CameraRate	NumFrames	NumMarkers	Units	OrigDataRate	OrigDataStartFrame	OrigNumFrames
30.0	30.0	8	22	m	30.0	804	2144
Frame#	Time	Hip			RHip			RKnee			RAnkle			RBigToe			RSmallToe			RHeel			LHip			LKnee			LAnkle			LBigToe			LSmallToe			LHeel			Neck			Head			Nose			RShoulder			RElbow			RWrist			LShoulder			LElbow			LWrist			
		X1	Y1	Z1	X2	Y2	Z2	X3	Y3	Z3	X4	Y4	Z4	X5	Y5	Z5	X6	Y6	Z6	X7	Y7	Z7	X8	Y8	Z8	X9	Y9	Z9	X10	Y10	Z10	X11	Y11	Z11	X12	Y12	Z12	X13	Y13	Z13	X14	Y14	Z14	X15	Y15	Z15	X16	Y16	Z16	X17	Y17	Z17	X18	Y18	Z18	X19	Y19	Z19	X20	Y20	Z20	X21	Y21	Z21	X22	Y22	Z22
804	26.812505832944474	1.3331207234050737	0.7053343654619947	0.0301	1.3669651811744992	0.7178519645444513	0.0301	1.4618764284502597	0.6072883918599946	0.129	1.5386882636743715	0.5180997485013789	0.023	1.5611819497950876	0.4943736937546112	0.2179	1.5792655108163798	0.5055532705542527	0.1804	1.5535178692189102	0.4964056086208405	-0.0119	1.3179427839296098	0.6744933348538542	0.0301	1.4015099648845697	0.5706598689926186	0.129	1.4691440570481553	0.4817215210228179	0.023	1.483164083199865	0.4612370162288427	0.2179	1.474867388126633	0.4491743306365543	0.1804	1.4875940310171303	0.46836976729453056	-0.0119	1.1938478860414523	0.8702182730890234	0.0008	1.1512140945499794	0.9215172303010611	0.0655	1.1768498670505467	0.878204043863644	0.1076	1.2602233279558308	0.8840121494151125	-0.01275	1.3570242753324409	0.8149509722311806	0.0702	1.408027873208253	0.7474353397688589	0.1076	1.1711390560783457	0.8085078419237091	-0.01275	1.2263922837390895	0.7102821006236028	0.0702	1.2752144173799589	0.6273125168449785	0.1076
805	26.845854720796392	1.3315402047534806	0.7026032732117072	0.0301	1.3658533936652968	0.7141670480861148	0.0301	1.457671784301477	0.6082788712930273	0.129	1.5339038080385776	0.5234812105808598	0.023	1.5628752601414448	0.4916441364566779	0.2179	1.5792590333643934	0.5037653382995301	0.1804	1.5482413582640668	0.5022349211782338	-0.0119	1.3177490969741277	0.6709603763245388	0.0301	1.4005475339210298	0.5689880092812648	0.129	1.4693411092578348	0.4815731148011991	0.023	1.4822338357837146	0.4575231535925104	0.2179	1.4754388157155	0.44602767934495563	0.1804	1.4891450451989459	0.4675383460256421	-0.0119	1.1917774489845494	0.8668853406588369	0.0008	1.1490641458993203	0.9178506065791209	0.0655	1.1746192327085023	0.8749527484341703	0.1076	1.2576156445850548	0.8808924450668456	-0.01275	1.3542122632763052	0.8127585899793317	0.0702	1.4048398209636526	0.7462178339169001	0.1076	1.169123819038008	0.8056649989756385	-0.01275	1.2248961900730677	0.7078955036030393	0.0702	1.2724523101162823	0.6251581485930715	0.1076
806	26.879203608648314	1.3279287961968123	0.7006375353417345	0.0301	1.3622735070376173	0.7116042650856855	0.0301	1.4511956635848848	0.6111987667047424	0.129	1.523977139944498	0.5339307216539688	0.023	1.5655073559302775	0.4884630347781992	0.2179	1.5800165361764658	0.5030592363903187	0.1804	1.5389169803065137	0.5124367001006196	-0.0119	1.3144842803468801	0.668921371448155	0.0301	1.3980458992814788	0.5688184278486037	0.129	1.4690993590239414	0.4820181005861454	0.023	1.4824417996454553	0.45517247858734006	0.2179	1.476586077480698	0.44450563437325746	0.1804	1.489883498193795	0.467651975943851	-0.0119	1.189112701692254	0.8638959593966595	0.0008	1.1459818869562077	0.9146447261566856	0.0655	1.1703079991412324	0.8709927663433944	0.1076	1.2546504694461882	0.8776768886381242	-0.01275	1.3505220959219786	0.8101548738291343	0.0702	1.4015387124151517	0.745004490176762	0.1076	1.1666956490501115	0.8033646354920189	-0.01275	1.2226578604418306	0.7057048135199686	0.0702	1.26894675275733	0.6226069689727971	0.1076
807	26.912552496500236	1.321446974500993	0.7013152616564325	0.0301	1.3550452001471243	0.713181614582004	0.0301	1.4445791679639206	0.6145410351330065	0.129	1.5131713853689783	0.5452444681557985	0.023	1.5672853061465732	0.48686264357720976	0.2179	1.5802162247610039	0.5044537506993884	0.1804	1.5294708974572342	0.5227427429397696	-0.0119	1.3071176165408336	0.6709297216082725	0.0301	1.3941671985360709	0.5700356375512703	0.129	1.4687048525312343	0.4831976250268981	0.023	1.4826234443424626	0.45414528303741286	0.2179	1.4772268603077194	0.4446710474230165	0.1804	1.4902437403536097	0.46896092673855105	-0.0119	1.18650562553312	0.8616881904141026	0.0008	1.143491147357624	0.9120448735267317	0.0655	1.1647655775139685	0.8665485176662053	0.1076	1.2522566664184769	0.8748854876536136	-0.01275	1.3466743370752186	0.807763774482681	0.0702	1.398349293184928	0.7435765566755885	0.1076	1.1647958174917472	0.8020125272664305	-0.01275	1.2202399493280605	0.7037763967830266	0.0702	1.2655300713564477	0.6202477090675504	0.1076
808	26.945901384352158	1.3148378592240115	0.7034844745580826	0.0301	1.346991386155708	0.7173586919617729	0.0301	1.439451197130623	0.6166857969682754	0.129	1.5057730293847764	0.5526213428736139	0.023	1.5661613824450573	0.4894112405962454	0.2179	1.5781482390932544	0.5087748633278872	0.1804	1.5236213871276694	0.5291062756960778	-0.0119	1.2994306213370381	0.6748868345438238	0.0301	1.3904373910739074	0.5710331661490659	0.129	1.468639492974039	0.48439441503944136	0.023	1.4825608738127727	0.4535474444157524	0.2179	1.4775630673590696	0.4447076646609569	0.1804	1.4904879396563795	0.470269018133887	-0.0119	1.1840899289015085	0.8600266733475164	0.0008	1.1417396273322409	0.9092074859542438	0.0655	1.1604045695615441	0.8629913329997176	0.1076	1.2501659685357152	0.8729521967326241	-0.01275	1.3430184993277117	0.8060591624884988	0.0702	1.3952755492272952	0.7420651576131526	0.1076	1.1632518154531037	0.8015671647449819	-0.01275	1.217954013070551	0.7024078960692978	0.0702	1.2618600167252023	0.6182329142829878	0.1076
809	26.979250272204077	1.3109535156895804	0.7045867895506372	0.0301	1.3416185351033263	0.7199647709118193	0.0301	1.435071084602566	0.6177121664603271	0.129	1.501222179387664	0.5556559645889255	0.023	1.5625843561547905	0.49517865621030466	0.2179	1.5739320004683734	0.5144805782285798	0.1804	1.5204829431760343	0.5321136935210923	-0.0119	1.2951194267699302	0.676684385360118	0.0301	1.3877144112256714	0.5709198731063622	0.129	1.4686771194683401	0.48473540150671085	0.023	1.483290833815992	0.4534305562105937	0.2179	1.4784286112179827	0.4437988680276058	0.1804	1.4902076372564397	0.4704874943031215	-0.0119	1.181539393411246	0.8584752891625476	0.0008	1.1392410258208414	0.9061353564705382	0.0655	1.1586713386081893	0.8615668516373794	0.1076	1.2474900472086323	0.8721398593690811	-0.01275	1.3393551765878164	0.8048567611970864	0.0702	1.3923203016544177	0.7406505800833679	0.1076	1.1609110051914149	0.8012681130096071	-0.01275	1.2149128831404488	0.701926024006749	0.0702	1.2573101328697038	0.6167802341086799	0.1076
810	27.012599160056	1.3093214904291377	0.7040895554992054	0.0301	1.3393351855415905	0.7197386731773878	0.0301	1.4303439244577822	0.6186158561872114	0.129	1.497332822218868	0.5568629920743865	0.023	1.5590122419713377	0.5003556338440092	0.2179	1.5693149229382322	0.5184632625142965	0.1804	1.5172863275765434	0.5343524057541329	-0.0119	1.293503692656672	0.6755748348380339	0.0301	1.385641656093599	0.5707091729997137	0.129	1.4684228673999387	0.48444921899627974	0.023	1.4846759475735047	0.4541691087894986	0.2179	1.4794088015208149	0.4430692427051974	0.1804	1.4894746869340196	0.47000957710355107	-0.0119	1.179430899737134	0.8566258774020324	0.0008	1.1352771248960207	0.904905749451438	0.0655	1.158700905599406	0.8615290286667372	0.1076	1.2444322538221368	0.8721620947593566	-0.01275	1.3357842498608843	0.803954968291113	0.0702	1.3897317255953165	0.7394543265428578	0.1076	1.1575027300664398	0.8005841428296223	-0.01275	1.2106845715974675	0.7025110101334173	0.0702	1.2524060033921878	0.6167493507241443	0.1076
811	27.04594804790792	1.3089190682061551	0.7021336675475361	0.0301	1.3390496571133335	0.7177482637958775	0.0301	1.4268910689206622	0.6192397796325791	0.129	1.4956393103050507	0.5563729195034888	0.023	1.556915385837259	0.5033401422391632	0.2179	1.565827265946383	0.5196737827721709	0.1804	1.5150809944184929	0.5351495975363841	-0.0119	1.2929537658883927	0.6729768920435976	0.0301	1.3843813211542495	0.5709523915828768	0.129	1.468132697719701	0.484148186596952	0.023	1.4853544730240835	0.4553257556597983	0.2179	1.4795323653071821	0.4433934378168398	0.1804	1.4888812316505577	0.4695615375541464	-0.0119	1.1781545475030284	0.8549622271683365	0.0008	1.130403450244241	0.9073800270152221	0.0655	1.1587401221451523	0.8620162071169918	0.1076	1.2416058466376296	0.8723545759434539	-0.01275	1.3328154860926762	0.8035379279972198	0.0702	1.3878100819437749	0.73844299123781	0.1076	1.1540239568798687	0.8002287009919361	-0.01275	1.2062318465532489	0.7036950224829083	0.0702	1.2481927388499725	0.6179514579486112	0.1076
